<?xml version="1.0" standalone="no"?>
<!DOCTYPE svg PUBLIC "-//W3C//DTD SVG 20010904//EN"
 "http://www.w3.org/TR/2001/REC-SVG-20010904/DTD/svg10.dtd">
<svg version="1.0" xmlns="http://www.w3.org/2000/svg"
 width="400.000000pt" height="400.000000pt" viewBox="0 0 400.000000 400.000000"
 preserveAspectRatio="xMidYMid meet">
<metadata>
Created by potrace 1.14, written by Peter Selinger 2001-2017
</metadata>
<g transform="translate(0.000000,400.000000) scale(0.100000,-0.100000)"
fill="#000000" stroke="none">
<path d="M2619 3706 c-57 -28 -75 -83 -94 -281 -13 -138 -20 -196 -30 -245 -5
-22 -19 -86 -20 -90 -2 -7 -15 -69 -20 -95 -2 -11 -4 -20 -6 -20 -1 0 -3 -9
-5 -20 -1 -11 -10 -54 -19 -95 -9 -41 -18 -109 -21 -150 -11 -185 -14 -212
-29 -222 -5 -4 -6 -10 -2 -15 11 -10 28 18 19 32 -3 5 1 4 10 -3 18 -14 23 -5
34 55 3 15 7 29 9 31 7 8 -2 -165 -10 -178 -4 -6 -10 -40 -13 -74 -2 -33 -8
-62 -11 -64 -4 -1 -6 -23 -5 -48 2 -35 -1 -44 -12 -40 -7 3 -18 -3 -23 -12
-12 -20 -13 -19 -16 35 -2 31 2 43 14 46 13 4 13 5 -2 6 -14 1 -16 5 -9 19 5
9 9 35 9 57 0 22 5 49 10 60 6 11 7 29 2 40 -6 17 -8 15 -8 -11 -1 -17 -4 -34
-8 -38 -4 -4 -8 -21 -8 -39 -1 -18 -7 -48 -13 -67 -6 -19 -13 -57 -16 -85 -3
-27 -9 -72 -15 -100 -12 -66 -22 -147 -26 -215 -2 -30 -6 -89 -10 -130 -12
-149 -13 -177 -4 -191 7 -11 9 -10 10 6 1 11 1 26 0 33 -1 6 3 12 10 12 8 0 9
-10 4 -32 -4 -18 -7 -38 -8 -45 0 -6 -6 -9 -14 -6 -9 4 -11 0 -7 -11 3 -9 11
-13 18 -10 6 3 0 -4 -14 -17 -21 -18 -22 -21 -5 -15 18 5 20 1 19 -34 -2 -38
9 -54 19 -27 4 13 10 -125 7 -183 -3 -56 -1 -82 8 -130 10 -47 15 -45 12 2 -2
42 15 34 29 -12 13 -45 8 -62 -16 -53 -12 5 -15 2 -10 -10 3 -9 1 -22 -7 -29
-16 -15 -8 -58 10 -58 8 0 19 -11 26 -24 6 -14 18 -28 26 -31 29 -11 79 26
106 79 57 115 66 134 70 157 3 13 5 24 6 24 2 0 6 23 13 65 3 14 10 24 16 22
6 -1 11 5 11 13 0 25 1 30 12 43 6 7 12 36 14 65 5 89 15 161 26 184 6 13 9
25 6 28 -3 4 -2 23 3 43 17 68 18 74 21 114 1 22 8 42 15 45 10 4 11 9 2 19
-9 11 -8 18 1 29 7 8 9 15 4 15 -5 0 -4 4 2 8 8 5 9 14 1 32 -16 39 -16 48 -2
60 9 7 12 30 10 70 -2 41 1 62 11 71 7 6 11 16 7 22 -3 6 -1 7 6 3 6 -4 9 -11
6 -16 -3 -4 4 -10 15 -13 11 -3 20 -13 20 -22 0 -10 -4 -13 -12 -8 -31 18 -36
11 -35 -48 1 -32 5 -53 9 -46 3 6 4 15 2 19 -3 4 1 8 8 8 10 0 10 2 -1 9 -7 5
-10 14 -7 20 4 6 12 9 17 6 5 -3 6 1 3 10 -4 9 -3 15 2 14 30 -5 36 2 32 40
-2 22 0 37 4 35 5 -3 9 0 9 5 1 6 3 16 4 21 1 6 3 21 4 34 0 14 8 31 16 39 15
15 45 115 45 149 0 17 19 27 20 11 1 -5 5 -27 9 -50 5 -27 4 -46 -2 -52 -8 -8
-5 -11 10 -11 12 0 25 5 28 10 10 16 27 0 22 -21 -3 -10 -1 -22 4 -25 13 -8 1
-46 -20 -63 -15 -13 -15 -13 1 -8 24 8 31 -20 12 -49 -18 -27 -32 -31 -40 -10
-3 8 -11 16 -17 19 -14 5 -15 -96 -2 -202 7 -61 8 -63 21 -40 7 13 11 40 9 59
-2 19 -2 26 1 15 4 -11 10 -25 15 -30 4 -6 4 -16 0 -23 -6 -11 -7 -81 0 -89 1
-2 2 -6 3 -10 7 -28 19 -53 26 -53 10 0 20 -56 25 -135 2 -35 8 -72 14 -83 6
-12 11 -29 11 -39 0 -10 9 -24 19 -30 19 -12 19 -11 5 22 -18 45 -7 44 31 0
17 -19 36 -35 43 -35 6 0 12 -4 12 -10 0 -5 -7 -10 -16 -10 -8 0 -13 -4 -10
-8 7 -12 72 -9 66 3 -2 6 -11 9 -18 7 -8 -2 -11 1 -7 7 3 6 16 11 28 11 12 0
27 4 33 8 22 15 64 100 64 130 0 28 7 36 30 34 3 0 5 41 4 91 -1 59 3 99 12
112 7 11 11 40 10 65 -2 25 1 50 6 57 5 6 12 37 15 69 5 46 3 58 -10 66 -21
11 -22 28 -3 28 21 0 27 28 17 79 -1 3 -8 -4 -16 -15 -10 -12 -13 -13 -10 -3
3 8 -3 24 -15 34 -20 18 -29 52 -10 40 6 -4 7 -12 4 -18 -5 -9 -3 -9 6 0 11
10 11 15 0 28 -7 8 -19 15 -27 15 -9 0 -13 6 -9 15 3 8 0 15 -7 15 -7 0 -4 5
5 11 16 9 16 13 -4 54 -12 24 -25 42 -30 39 -4 -3 -8 0 -8 5 0 6 7 11 15 11 9
0 20 10 24 23 9 21 9 21 16 -8 11 -47 13 -52 14 -26 1 14 6 21 14 18 7 -3 13
3 13 13 0 10 -3 17 -6 15 -3 -2 -17 5 -30 15 -23 17 -24 19 -6 26 12 5 22 2
28 -9 5 -10 14 -17 19 -17 6 0 7 5 4 10 -3 6 -2 10 3 10 5 0 7 13 4 29 -2 16
1 32 7 35 7 4 9 1 5 -7 -3 -8 -1 -18 5 -22 7 -4 11 8 12 32 1 53 7 80 23 106
8 12 17 40 20 62 4 22 11 54 16 70 5 17 14 50 20 75 7 25 16 54 21 65 14 36
23 70 20 83 -1 7 5 20 14 29 12 12 15 27 12 58 -6 43 4 72 20 62 22 -14 38 14
39 65 1 60 8 94 24 113 13 16 22 55 12 55 -13 0 -87 -130 -190 -332 -56 -108
-107 -207 -115 -220 -8 -13 -22 -49 -31 -80 -9 -31 -21 -60 -26 -63 -6 -4 -8
-10 -5 -15 3 -4 -1 -10 -8 -13 -9 -3 -12 35 -11 170 l2 174 -27 25 c-14 13
-31 24 -37 24 -6 0 -22 8 -35 18 -21 17 -53 29 -99 38 -26 5 -79 -39 -95 -80
-9 -22 -18 -81 -20 -138 -3 -87 -8 -108 -40 -181 -77 -173 -108 -245 -140
-331 -19 -49 -38 -92 -44 -95 -5 -3 -12 -33 -15 -66 -7 -68 -10 -85 -26 -135
-6 -19 -14 -48 -16 -65 -3 -16 -9 -34 -13 -38 -11 -11 -6 77 8 136 6 27 9 52
6 57 -3 5 -1 11 5 15 5 3 10 19 10 34 0 15 5 32 12 39 7 7 11 36 9 74 -5 143
-1 180 31 244 14 29 17 47 11 59 -12 21 -4 77 10 68 6 -3 7 -1 3 5 -4 6 -2 21
5 33 6 12 15 66 20 122 5 65 14 106 24 117 10 11 15 36 14 76 0 32 2 70 5 84
4 14 9 50 12 80 2 30 7 75 10 100 12 100 1 274 -18 297 -19 24 -127 92 -151
97 -13 2 -35 -1 -48 -8z m748 -1118 c-3 -7 -5 -2 -5 12 0 14 2 19 5 13 2 -7 2
-19 0 -25z m-740 -650 c-3 -8 -6 -5 -6 6 -1 11 2 17 5 13 3 -3 4 -12 1 -19z
m-304 -185 c3 -4 -1 -17 -9 -28 -13 -17 -14 -14 -13 36 1 43 2 49 9 27 4 -14
10 -30 13 -35z m727 -59 c0 -8 -4 -12 -10 -9 -5 3 -10 10 -10 16 0 5 5 9 10 9
6 0 10 -7 10 -16z m-730 -13 c0 -4 -6 -16 -14 -27 -14 -18 -15 -17 -12 11 2
17 4 31 5 33 2 6 21 -9 21 -17z m50 -220 c0 -6 -4 -13 -10 -16 -5 -3 -10 1
-10 9 0 9 5 16 10 16 6 0 10 -4 10 -9z m-11 -123 c0 -7 -4 -22 -9 -33 -7 -16
-8 -14 -7 12 1 18 5 33 10 33 4 0 7 -6 6 -12z m-9 -180 c0 -16 -3 -19 -11 -11
-6 6 -8 16 -5 22 11 17 16 13 16 -11z"/>
<path d="M1695 3432 c-16 -9 -44 -15 -61 -14 -27 2 -61 -11 -243 -95 -19 -9
-57 -29 -85 -45 -44 -26 -55 -29 -83 -20 -20 6 -35 6 -39 1 -6 -11 -35 -12
-32 -1 3 7 -5 12 -19 12 -7 0 -14 -45 -17 -107 -1 -13 -6 -23 -11 -23 -13 0
-39 -29 -48 -54 -4 -10 -16 -20 -27 -23 -11 -3 -20 -9 -20 -14 0 -5 -6 -9 -14
-9 -8 0 -17 -8 -20 -18 -3 -9 -22 -26 -41 -36 -19 -10 -37 -27 -40 -37 -6 -18
-16 -22 -57 -22 -10 0 -18 -3 -18 -7 0 -4 -11 -20 -25 -36 -26 -30 -31 -44
-16 -44 4 0 6 -12 3 -26 -3 -18 -1 -25 6 -20 21 13 23 -14 3 -36 -25 -26 -27
-46 -5 -55 8 -3 13 -11 11 -17 -3 -7 1 -20 9 -30 7 -11 11 -23 8 -27 -3 -5 -3
-9 1 -9 8 0 106 70 135 97 13 12 33 23 43 23 10 0 16 4 12 9 -3 6 4 15 15 21
19 10 19 9 8 -15 -6 -14 -20 -25 -30 -25 -11 0 -17 -4 -14 -9 4 -5 2 -11 -3
-13 -4 -1 -11 -29 -15 -61 -3 -32 -8 -62 -10 -65 -2 -4 -7 -29 -10 -55 -4 -27
-14 -69 -22 -94 -9 -25 -14 -54 -11 -64 3 -10 -1 -23 -8 -29 -7 -6 -15 -29
-18 -53 -13 -97 -27 -159 -46 -203 -15 -33 -18 -51 -11 -64 7 -13 7 -21 -2
-26 -7 -4 -8 -3 -4 4 4 7 3 12 -2 12 -6 0 -10 -10 -10 -22 0 -13 -3 -48 -7
-78 -10 -77 -14 -183 -7 -176 8 8 12 39 15 103 1 28 5 49 9 46 7 -4 12 20 9
40 0 4 6 7 14 7 18 0 19 -12 3 -28 -7 -7 -8 -12 -4 -12 5 0 3 -7 -4 -15 -10
-12 -8 -14 8 -10 14 2 19 -1 17 -13 -2 -9 -4 -17 -5 -17 -2 0 -10 -56 -14
-101 -2 -22 -8 -49 -14 -60 -5 -10 -13 -41 -17 -69 -15 -98 -23 -128 -34 -121
-4 3 -8 -5 -8 -17 -4 -41 -14 -68 -23 -62 -6 3 -10 -1 -10 -9 0 -9 -4 -16 -10
-16 -5 0 -10 -6 -10 -12 0 -7 -12 -24 -25 -37 -23 -21 -30 -39 -26 -66 1 -5
-6 -1 -14 9 -8 11 -15 15 -15 9 0 -7 7 -19 16 -28 13 -12 14 -19 4 -30 -16
-20 -28 -19 -33 2 -4 15 -5 15 -6 -2 0 -11 -19 -42 -42 -70 -30 -36 -39 -54
-34 -72 3 -13 1 -23 -5 -23 -5 0 -12 -11 -16 -24 -3 -13 -19 -36 -35 -52 -16
-15 -29 -34 -29 -41 0 -7 -4 -13 -9 -13 -5 0 -16 -17 -24 -38 -9 -20 -27 -49
-42 -65 -14 -15 -27 -36 -28 -47 -1 -11 -5 -20 -10 -20 -4 0 -6 -4 -2 -9 3 -5
-3 -16 -13 -23 -15 -11 -108 -178 -111 -200 -1 -4 -3 -13 -5 -20 -13 -42 -13
-56 0 -51 7 2 10 11 7 18 -3 10 1 13 16 10 19 -3 26 5 22 28 -1 5 3 6 9 2 12
-8 13 -65 1 -65 -5 0 -7 -8 -4 -19 3 -10 0 -22 -6 -25 -18 -12 -12 -35 8 -33
11 0 18 4 15 8 -2 4 11 23 30 43 18 20 31 36 27 36 -3 0 14 14 39 30 25 16 41
30 36 30 -5 0 -2 8 5 17 12 15 12 16 -1 8 -13 -8 -13 -6 -1 8 7 9 17 15 21 12
4 -3 13 9 20 25 7 16 15 28 19 26 3 -3 17 12 30 31 12 19 17 32 9 27 -7 -4 19
23 57 59 39 37 66 67 61 67 -6 0 3 15 20 33 44 48 89 108 107 144 9 17 29 41
44 53 16 12 27 25 27 28 -2 11 56 92 89 123 16 16 27 29 24 29 -3 0 12 19 34
43 21 23 42 52 45 65 3 12 12 22 20 22 8 0 14 4 14 9 0 5 10 11 22 13 13 2 29
18 42 43 11 22 28 46 38 53 10 7 18 18 18 23 0 6 24 39 53 73 28 35 65 79 81
100 16 20 34 35 40 33 10 -3 44 30 126 124 62 71 86 95 161 161 35 31 69 71
76 88 10 27 10 30 -3 19 -8 -6 -17 -9 -21 -5 -3 3 -2 6 4 6 5 0 15 12 22 27
12 25 14 26 23 10 9 -18 11 -18 29 -1 10 9 19 23 19 30 0 7 9 18 20 24 11 6
20 18 20 26 0 9 5 12 12 8 8 -5 9 -2 5 10 -4 10 -3 15 4 11 5 -4 22 1 37 11
l27 18 -24 6 -25 6 30 14 c31 15 34 19 34 43 0 8 4 7 10 -3 8 -12 10 -11 10 6
0 12 7 25 16 28 9 4 13 2 8 -5 -4 -8 0 -7 15 0 11 7 21 14 21 17 0 3 -4 2 -10
-1 -5 -3 -10 -2 -10 3 0 6 11 13 25 16 23 6 24 9 14 29 -11 20 -11 21 4 8 15
-11 17 -11 17 1 0 8 18 31 41 51 22 20 38 40 35 45 -2 4 22 37 55 72 33 36 60
66 59 68 0 1 0 3 1 5 8 27 7 47 -4 47 -8 0 -7 4 3 10 9 6 11 10 3 10 -7 0 -10
7 -7 15 4 8 9 13 14 10 8 -5 33 45 25 53 -3 3 -5 0 -5 -6 0 -7 -5 -12 -11 -12
-8 0 -8 5 1 15 10 12 16 13 26 4 11 -9 14 -7 14 8 0 10 11 34 24 52 24 32 24
51 4 78 -6 7 -7 17 -3 23 3 5 2 10 -3 10 -5 0 -9 7 -9 15 0 17 13 20 19 5 2
-6 9 -6 18 0 12 7 11 10 -5 17 -11 4 -21 15 -21 23 0 8 -4 23 -9 33 -4 10 -3
29 3 42 9 20 7 33 -12 72 -13 26 -30 61 -37 76 -14 31 -166 163 -176 154 -3
-4 -14 -2 -25 4 -11 6 -53 10 -93 10 -41 0 -77 3 -79 8 -10 15 -169 10 -201
-7z m247 -313 c59 -17 100 -60 103 -110 2 -21 -1 -39 -6 -39 -4 0 -8 -15 -7
-33 1 -18 -4 -41 -9 -52 -6 -11 -8 -26 -6 -33 3 -7 -11 -36 -30 -65 -20 -30
-39 -66 -42 -80 -4 -15 -10 -27 -14 -27 -4 0 -14 -15 -23 -33 -15 -32 -33 -56
-95 -123 -18 -20 -33 -40 -33 -45 0 -6 -4 -8 -8 -5 -12 7 -44 -24 -72 -69 -17
-27 -25 -33 -31 -23 -5 7 -9 10 -9 6 0 -5 1 -9 2 -10 5 -9 -25 -48 -38 -48 -8
0 -12 -4 -9 -10 3 -5 0 -7 -9 -4 -8 3 -19 -3 -26 -15 -6 -12 -17 -21 -25 -21
-7 0 -24 -14 -37 -31 -13 -16 -45 -54 -73 -82 -67 -70 -115 -129 -115 -142 0
-6 -10 -17 -21 -25 -12 -8 -25 -19 -30 -25 -40 -48 -57 -64 -61 -59 -4 3 -19
-12 -34 -32 -38 -49 -83 -94 -95 -94 -6 0 -8 -4 -4 -9 3 -5 0 -13 -6 -16 -8
-5 -9 10 -3 51 4 33 8 91 10 129 1 39 9 93 17 122 9 28 18 87 21 130 2 43 7
85 10 93 3 8 8 40 11 70 7 90 10 105 18 111 4 3 9 23 11 45 2 21 12 55 23 74
27 49 73 156 79 183 3 12 7 33 10 47 3 14 9 39 15 57 6 18 10 40 9 50 -1 10
-2 23 -1 29 1 10 149 81 182 88 8 2 21 6 29 9 87 34 170 57 222 62 34 3 64 7
65 9 9 8 99 5 135 -5z m-1074 -223 c-7 -6 -18 -17 -25 -24 -6 -7 -14 -9 -17
-4 -8 13 33 54 45 46 7 -4 6 -10 -3 -18z m289 -358 c-3 -8 -6 -5 -6 6 -1 11 2
17 5 13 3 -3 4 -12 1 -19z m-80 -30 c-3 -8 -6 -5 -6 6 -1 11 2 17 5 13 3 -3 4
-12 1 -19z m65 -43 c3 -30 2 -33 -10 -21 -9 8 -11 22 -7 35 9 29 12 26 17 -14z
m678 15 c0 -5 -4 -10 -10 -10 -5 0 -10 5 -10 10 0 6 5 10 10 10 6 0 10 -4 10
-10z m-843 -122 c-3 -8 -6 -5 -6 6 -1 11 2 17 5 13 3 -3 4 -12 1 -19z m419
-333 c-9 -9 -16 -13 -16 -8 0 12 22 34 28 28 2 -2 -3 -11 -12 -20z m-546 -61
c0 -14 -4 -23 -10 -19 -5 3 -10 15 -10 26 0 10 5 19 10 19 6 0 10 -12 10 -26z
m313 -173 c-12 -10 -20 -21 -17 -24 3 -3 -4 -11 -16 -17 -12 -6 -24 -9 -28 -6
-3 3 0 6 6 6 7 0 12 6 12 13 0 6 12 19 28 29 36 22 42 21 15 -1z"/>
<path d="M2919 2203 c0 -5 -2 -18 -5 -30 -2 -12 0 -24 4 -27 4 -2 8 11 9 30 2
19 1 34 -2 34 -3 0 -5 -3 -6 -7z"/>
<path d="M2926 1818 c3 -5 10 -6 15 -3 13 9 11 12 -6 12 -8 0 -12 -4 -9 -9z"/>
<path d="M3304 1578 c-4 -7 -3 -8 4 -4 7 4 12 3 12 -3 0 -5 -4 -11 -9 -13 -5
-1 -12 -19 -16 -39 -7 -35 -6 -36 19 -32 25 5 28 12 28 63 0 11 0 25 -1 30 -1
14 -28 13 -37 -2z"/>
<path d="M757 1551 c-4 -17 -3 -21 5 -13 5 5 8 16 6 23 -3 8 -7 3 -11 -10z"/>
<path d="M742 1450 c0 -14 2 -19 5 -12 2 6 2 18 0 25 -3 6 -5 1 -5 -13z"/>
<path d="M2285 1380 c3 -5 8 -10 11 -10 2 0 4 5 4 10 0 6 -5 10 -11 10 -5 0
-7 -4 -4 -10z"/>
</g>
</svg>
